STARTFONT 2.1
FONT -HP-HP System-Medium-R-Normal--13-100-72-72-P-75-ISO8859-2
SIZE 10 72 72
FONTBOUNDINGBOX 10 13 0 -3

STARTPROPERTIES 26
COPYRIGHT "Copyright (c) 1994-95, Hewlett-Packard Co. All rights reserved."
NOTICE "This Font is licensed for use on Hewlett-Packard Equipment only."
FONTNAME_REGISTRY ""
FAMILY_NAME "HP System"
FOUNDRY "HP"
WEIGHT_NAME "Medium"
SETWIDTH_NAME "Normal"
SLANT "R"
ADD_STYLE_NAME "Sans Serif"
PIXEL_SIZE 13
POINT_SIZE 100
RESOLUTION_X 72
RESOLUTION_Y 72
SPACING "P"
AVERAGE_WIDTH 75
CHARSET_REGISTRY "ISO8859"
CHARSET_ENCODING "2"
CHARSET_COLLECTIONS "ISO8859-2"
FULL_NAME "HP System13"
CAP_HEIGHT 8
X_HEIGHT 6
WEIGHT 10
QUAD_WIDTH 6
DEFAULT_CHAR 32
FONT_DESCENT 3
FONT_ASCENT 10
ENDPROPERTIES

CHARS 192

STARTCHAR space
ENCODING 32
SWIDTH 300 0
DWIDTH 3 0
BBX 1 1 0 0
BITMAP
00
ENDCHAR

STARTCHAR exclam
ENCODING 33
SWIDTH 300 0
DWIDTH 3 0
BBX 1 10 1 -1
BITMAP
80
80
80
80
80
80
00
00
80
80
ENDCHAR

STARTCHAR quotedbl
ENCODING 34
SWIDTH 400 0
DWIDTH 4 0
BBX 3 3 1 6
BITMAP
A0
A0
A0
ENDCHAR

STARTCHAR numbersign
ENCODING 35
SWIDTH 600 0
DWIDTH 6 0
BBX 5 10 1 -1
BITMAP
50
50
50
F8
50
50
F8
50
50
50
ENDCHAR

STARTCHAR dollar
ENCODING 36
SWIDTH 600 0
DWIDTH 6 0
BBX 5 12 1 -2
BITMAP
20
20
70
A8
A0
60
30
28
A8
70
20
20
ENDCHAR

STARTCHAR percent
ENCODING 37
SWIDTH 1000 0
DWIDTH 10 0
BBX 9 10 1 -1
BITMAP
6200
9200
9400
6400
0800
0800
1300
1480
2480
2300
ENDCHAR

STARTCHAR ampersand
ENCODING 38
SWIDTH 700 0
DWIDTH 7 0
BBX 6 10 1 -1
BITMAP
78
80
80
88
7C
88
88
88
8C
78
ENDCHAR

STARTCHAR apostrophe
ENCODING 39
SWIDTH 400 0
DWIDTH 4 0
BBX 3 3 1 6
BITMAP
60
40
80
ENDCHAR

STARTCHAR parenleft
ENCODING 40
SWIDTH 400 0
DWIDTH 4 0
BBX 3 12 1 -2
BITMAP
20
40
80
80
80
80
80
80
80
80
40
20
ENDCHAR

STARTCHAR parenright
ENCODING 41
SWIDTH 400 0
DWIDTH 4 0
BBX 3 12 1 -2
BITMAP
80
40
20
20
20
20
20
20
20
20
40
80
ENDCHAR

STARTCHAR asterisk
ENCODING 42
SWIDTH 800 0
DWIDTH 8 0
BBX 5 5 2 1
BITMAP
20
A8
70
A8
20
ENDCHAR

STARTCHAR plus
ENCODING 43
SWIDTH 800 0
DWIDTH 8 0
BBX 5 5 2 1
BITMAP
20
20
F8
20
20
ENDCHAR

STARTCHAR comma
ENCODING 44
SWIDTH 400 0
DWIDTH 4 0
BBX 3 3 1 -1
BITMAP
60
40
80
ENDCHAR

STARTCHAR minus
ENCODING 45
SWIDTH 800 0
DWIDTH 8 0
BBX 5 1 2 3
BITMAP
F8
ENDCHAR

STARTCHAR period
ENCODING 46
SWIDTH 300 0
DWIDTH 3 0
BBX 2 2 1 0
BITMAP
C0
C0
ENDCHAR

STARTCHAR slash
ENCODING 47
SWIDTH 800 0
DWIDTH 8 0
BBX 6 12 1 -2
BITMAP
04
04
08
08
10
10
20
20
40
40
80
80
ENDCHAR

STARTCHAR 0
ENCODING 48
SWIDTH 600 0
DWIDTH 6 0
BBX 5 8 1 0
BITMAP
70
88
88
88
88
88
88
70
ENDCHAR

STARTCHAR 1
ENCODING 49
SWIDTH 600 0
DWIDTH 6 0
BBX 3 8 1 0
BITMAP
20
60
A0
20
20
20
20
20
ENDCHAR

STARTCHAR 2
ENCODING 50
SWIDTH 600 0
DWIDTH 6 0
BBX 5 8 1 0
BITMAP
70
88
08
10
20
40
80
F8
ENDCHAR

STARTCHAR 3
ENCODING 51
SWIDTH 600 0
DWIDTH 6 0
BBX 5 8 1 0
BITMAP
70
88
08
30
08
08
88
70
ENDCHAR

STARTCHAR 4
ENCODING 52
SWIDTH 600 0
DWIDTH 6 0
BBX 5 8 1 0
BITMAP
10
30
50
50
90
F8
10
10
ENDCHAR

STARTCHAR 5
ENCODING 53
SWIDTH 600 0
DWIDTH 6 0
BBX 5 8 1 0
BITMAP
F8
80
80
F0
08
08
88
70
ENDCHAR

STARTCHAR 6
ENCODING 54
SWIDTH 600 0
DWIDTH 6 0
BBX 5 8 1 0
BITMAP
70
88
80
F0
88
88
88
70
ENDCHAR

STARTCHAR 7
ENCODING 55
SWIDTH 600 0
DWIDTH 6 0
BBX 5 8 1 0
BITMAP
F8
08
10
10
20
20
40
40
ENDCHAR

STARTCHAR 8
ENCODING 56
SWIDTH 600 0
DWIDTH 6 0
BBX 5 8 1 0
BITMAP
70
88
88
70
88
88
88
70
ENDCHAR

STARTCHAR 9
ENCODING 57
SWIDTH 600 0
DWIDTH 6 0
BBX 5 8 1 0
BITMAP
70
88
88
88
78
08
88
70
ENDCHAR

STARTCHAR colon
ENCODING 58
SWIDTH 500 0
DWIDTH 5 0
BBX 2 6 2 0
BITMAP
C0
C0
00
00
C0
C0
ENDCHAR

STARTCHAR semicolon
ENCODING 59
SWIDTH 500 0
DWIDTH 5 0
BBX 3 7 1 -1
BITMAP
60
60
00
00
60
40
80
ENDCHAR

STARTCHAR less
ENCODING 60
SWIDTH 800 0
DWIDTH 8 0
BBX 6 5 2 1
BITMAP
0C
30
C0
30
0C
ENDCHAR

STARTCHAR equal
ENCODING 61
SWIDTH 800 0
DWIDTH 8 0
BBX 5 3 2 2
BITMAP
F8
00
F8
ENDCHAR

STARTCHAR greater
ENCODING 62
SWIDTH 800 0
DWIDTH 8 0
BBX 6 5 2 1
BITMAP
C0
30
0C
30
C0
ENDCHAR

STARTCHAR question
ENCODING 63
SWIDTH 500 0
DWIDTH 5 0
BBX 4 10 1 -1
BITMAP
60
90
10
30
60
40
40
00
40
40
ENDCHAR

STARTCHAR at
ENCODING 64
SWIDTH 900 0
DWIDTH 9 0
BBX 7 10 1 -1
BITMAP
3C
42
9A
A6
A6
A6
A6
9A
40
3C
ENDCHAR

STARTCHAR A
ENCODING 65
SWIDTH 800 0
DWIDTH 8 0
BBX 7 8 1 0
BITMAP
10
10
28
28
44
7C
82
82
ENDCHAR

STARTCHAR B
ENCODING 66
SWIDTH 600 0
DWIDTH 6 0
BBX 5 8 1 0
BITMAP
F0
88
88
F0
88
88
88
F0
ENDCHAR

STARTCHAR C
ENCODING 67
SWIDTH 700 0
DWIDTH 7 0
BBX 6 8 1 0
BITMAP
38
44
80
80
80
80
44
38
ENDCHAR

STARTCHAR D
ENCODING 68
SWIDTH 700 0
DWIDTH 7 0
BBX 6 8 1 0
BITMAP
F0
88
84
84
84
84
88
F0
ENDCHAR

STARTCHAR E
ENCODING 69
SWIDTH 600 0
DWIDTH 6 0
BBX 5 8 1 0
BITMAP
F8
80
80
F8
80
80
80
F8
ENDCHAR

STARTCHAR F
ENCODING 70
SWIDTH 500 0
DWIDTH 5 0
BBX 4 8 1 0
BITMAP
F0
80
80
F0
80
80
80
80
ENDCHAR

STARTCHAR G
ENCODING 71
SWIDTH 700 0
DWIDTH 7 0
BBX 6 8 1 0
BITMAP
38
44
80
80
9C
84
44
38
ENDCHAR

STARTCHAR H
ENCODING 72
SWIDTH 700 0
DWIDTH 7 0
BBX 6 8 1 0
BITMAP
84
84
84
FC
84
84
84
84
ENDCHAR

STARTCHAR I
ENCODING 73
SWIDTH 200 0
DWIDTH 2 0
BBX 1 8 1 0
BITMAP
80
80
80
80
80
80
80
80
ENDCHAR

STARTCHAR J
ENCODING 74
SWIDTH 500 0
DWIDTH 5 0
BBX 4 8 1 0
BITMAP
10
10
10
10
10
10
90
60
ENDCHAR

STARTCHAR K
ENCODING 75
SWIDTH 600 0
DWIDTH 6 0
BBX 5 8 1 0
BITMAP
88
90
A0
C0
C0
A0
90
88
ENDCHAR

STARTCHAR L
ENCODING 76
SWIDTH 500 0
DWIDTH 5 0
BBX 4 8 1 0
BITMAP
80
80
80
80
80
80
80
F0
ENDCHAR

STARTCHAR M
ENCODING 77
SWIDTH 800 0
DWIDTH 8 0
BBX 7 8 1 0
BITMAP
82
C6
C6
AA
AA
92
92
82
ENDCHAR

STARTCHAR N
ENCODING 78
SWIDTH 700 0
DWIDTH 7 0
BBX 5 8 1 0
BITMAP
88
C8
C8
A8
A8
98
98
88
ENDCHAR

STARTCHAR O
ENCODING 79
SWIDTH 800 0
DWIDTH 8 0
BBX 7 8 1 0
BITMAP
38
44
82
82
82
82
44
38
ENDCHAR

STARTCHAR P
ENCODING 80
SWIDTH 600 0
DWIDTH 6 0
BBX 5 8 1 0
BITMAP
F0
88
88
88
F0
80
80
80
ENDCHAR

STARTCHAR Q
ENCODING 81
SWIDTH 800 0
DWIDTH 8 0
BBX 7 9 1 -1
BITMAP
38
44
82
82
82
92
4C
3C
02
ENDCHAR

STARTCHAR R
ENCODING 82
SWIDTH 600 0
DWIDTH 6 0
BBX 5 8 1 0
BITMAP
F0
88
88
88
F0
88
88
88
ENDCHAR

STARTCHAR S
ENCODING 83
SWIDTH 600 0
DWIDTH 6 0
BBX 5 8 1 0
BITMAP
70
88
80
60
30
08
88
70
ENDCHAR

STARTCHAR T
ENCODING 84
SWIDTH 600 0
DWIDTH 6 0
BBX 5 8 1 0
BITMAP
F8
20
20
20
20
20
20
20
ENDCHAR

STARTCHAR U
ENCODING 85
SWIDTH 700 0
DWIDTH 7 0
BBX 6 8 1 0
BITMAP
84
84
84
84
84
84
84
78
ENDCHAR

STARTCHAR V
ENCODING 86
SWIDTH 800 0
DWIDTH 8 0
BBX 7 8 1 0
BITMAP
82
82
44
44
28
28
10
10
ENDCHAR

STARTCHAR W
ENCODING 87
SWIDTH 1000 0
DWIDTH 10 0
BBX 9 8 1 0
BITMAP
8080
8880
8880
4900
5500
5500
2200
2200
ENDCHAR

STARTCHAR X
ENCODING 88
SWIDTH 800 0
DWIDTH 8 0
BBX 7 8 1 0
BITMAP
82
44
28
10
28
44
82
82
ENDCHAR

STARTCHAR Y
ENCODING 89
SWIDTH 800 0
DWIDTH 8 0
BBX 7 8 1 0
BITMAP
82
82
44
28
10
10
10
10
ENDCHAR

STARTCHAR Z
ENCODING 90
SWIDTH 600 0
DWIDTH 6 0
BBX 5 8 1 0
BITMAP
F8
08
10
20
40
80
80
F8
ENDCHAR

STARTCHAR bracketleft
ENCODING 91
SWIDTH 400 0
DWIDTH 4 0
BBX 3 10 1 -1
BITMAP
E0
80
80
80
80
80
80
80
80
E0
ENDCHAR

STARTCHAR backslash
ENCODING 92
SWIDTH 700 0
DWIDTH 7 0
BBX 6 12 1 -2
BITMAP
80
80
40
40
20
20
10
10
08
08
04
04
ENDCHAR

STARTCHAR bracketright
ENCODING 93
SWIDTH 400 0
DWIDTH 4 0
BBX 3 10 1 -1
BITMAP
E0
20
20
20
20
20
20
20
20
E0
ENDCHAR

STARTCHAR asciicircum
ENCODING 94
SWIDTH 900 0
DWIDTH 9 0
BBX 6 3 2 5
BITMAP
30
48
84
ENDCHAR

STARTCHAR underscore
ENCODING 95
SWIDTH 500 0
DWIDTH 5 0
BBX 5 1 0 -1
BITMAP
F8
ENDCHAR

STARTCHAR grave
ENCODING 96
SWIDTH 400 0
DWIDTH 4 0
BBX 3 3 1 6
BITMAP
20
40
C0
ENDCHAR

STARTCHAR a
ENCODING 97
SWIDTH 600 0
DWIDTH 6 0
BBX 5 6 1 0
BITMAP
70
08
78
88
98
68
ENDCHAR

STARTCHAR b
ENCODING 98
SWIDTH 600 0
DWIDTH 6 0
BBX 5 8 1 0
BITMAP
80
80
B0
C8
88
88
C8
B0
ENDCHAR

STARTCHAR c
ENCODING 99
SWIDTH 600 0
DWIDTH 6 0
BBX 5 6 1 0
BITMAP
70
88
80
80
88
70
ENDCHAR

STARTCHAR d
ENCODING 100
SWIDTH 600 0
DWIDTH 6 0
BBX 5 8 1 0
BITMAP
08
08
68
98
88
88
98
68
ENDCHAR

STARTCHAR e
ENCODING 101
SWIDTH 600 0
DWIDTH 6 0
BBX 5 6 1 0
BITMAP
70
88
F8
80
88
70
ENDCHAR

STARTCHAR f
ENCODING 102
SWIDTH 400 0
DWIDTH 4 0
BBX 3 8 1 0
BITMAP
20
40
40
E0
40
40
40
40
ENDCHAR

STARTCHAR g
ENCODING 103
SWIDTH 600 0
DWIDTH 6 0
BBX 5 9 1 -3
BITMAP
68
98
88
88
98
68
08
08
70
ENDCHAR

STARTCHAR h
ENCODING 104
SWIDTH 600 0
DWIDTH 6 0
BBX 5 8 1 0
BITMAP
80
80
B0
C8
88
88
88
88
ENDCHAR

STARTCHAR i
ENCODING 105
SWIDTH 200 0
DWIDTH 2 0
BBX 1 8 1 0
BITMAP
80
00
80
80
80
80
80
80
ENDCHAR

STARTCHAR j
ENCODING 106
SWIDTH 200 0
DWIDTH 2 0
BBX 2 11 0 -3
BITMAP
40
00
40
40
40
40
40
40
40
40
80
ENDCHAR

STARTCHAR k
ENCODING 107
SWIDTH 500 0
DWIDTH 5 0
BBX 4 8 1 0
BITMAP
80
80
90
A0
C0
C0
A0
90
ENDCHAR

STARTCHAR l
ENCODING 108
SWIDTH 200 0
DWIDTH 2 0
BBX 1 8 1 0
BITMAP
80
80
80
80
80
80
80
80
ENDCHAR

STARTCHAR m
ENCODING 109
SWIDTH 800 0
DWIDTH 8 0
BBX 7 6 1 0
BITMAP
A4
DA
92
92
92
92
ENDCHAR

STARTCHAR n
ENCODING 110
SWIDTH 600 0
DWIDTH 6 0
BBX 5 6 1 0
BITMAP
B0
C8
88
88
88
88
ENDCHAR

STARTCHAR o
ENCODING 111
SWIDTH 600 0
DWIDTH 6 0
BBX 5 6 1 0
BITMAP
70
88
88
88
88
70
ENDCHAR

STARTCHAR p
ENCODING 112
SWIDTH 600 0
DWIDTH 6 0
BBX 5 9 1 -3
BITMAP
B0
C8
88
88
C8
B0
80
80
80
ENDCHAR

STARTCHAR q
ENCODING 113
SWIDTH 600 0
DWIDTH 6 0
BBX 5 9 1 -3
BITMAP
68
98
88
88
98
68
08
08
08
ENDCHAR

STARTCHAR r
ENCODING 114
SWIDTH 500 0
DWIDTH 5 0
BBX 4 6 1 0
BITMAP
B0
C0
80
80
80
80
ENDCHAR

STARTCHAR s
ENCODING 115
SWIDTH 500 0
DWIDTH 5 0
BBX 4 6 1 0
BITMAP
70
80
60
10
10
E0
ENDCHAR

STARTCHAR t
ENCODING 116
SWIDTH 400 0
DWIDTH 4 0
BBX 3 7 1 0
BITMAP
40
40
E0
40
40
40
20
ENDCHAR

STARTCHAR u
ENCODING 117
SWIDTH 600 0
DWIDTH 6 0
BBX 5 6 1 0
BITMAP
88
88
88
88
98
68
ENDCHAR

STARTCHAR v
ENCODING 118
SWIDTH 600 0
DWIDTH 6 0
BBX 5 6 1 0
BITMAP
88
88
50
50
20
20
ENDCHAR

STARTCHAR w
ENCODING 119
SWIDTH 800 0
DWIDTH 8 0
BBX 7 6 1 0
BITMAP
92
92
AA
6C
44
44
ENDCHAR

STARTCHAR x
ENCODING 120
SWIDTH 700 0
DWIDTH 7 0
BBX 6 6 1 0
BITMAP
84
48
30
30
48
84
ENDCHAR

STARTCHAR y
ENCODING 121
SWIDTH 600 0
DWIDTH 6 0
BBX 5 8 1 -2
BITMAP
88
88
88
50
50
20
20
C0
ENDCHAR

STARTCHAR z
ENCODING 122
SWIDTH 500 0
DWIDTH 5 0
BBX 4 6 1 0
BITMAP
F0
10
20
40
80
F0
ENDCHAR

STARTCHAR braceleft
ENCODING 123
SWIDTH 600 0
DWIDTH 6 0
BBX 5 10 1 -1
BITMAP
18
20
20
20
C0
20
20
20
20
18
ENDCHAR

STARTCHAR bar
ENCODING 124
SWIDTH 400 0
DWIDTH 4 0
BBX 1 10 2 -1
BITMAP
80
80
80
80
80
80
80
80
80
80
ENDCHAR

STARTCHAR braceright
ENCODING 125
SWIDTH 600 0
DWIDTH 6 0
BBX 5 10 1 -1
BITMAP
C0
20
20
20
18
20
20
20
20
C0
ENDCHAR

STARTCHAR asciitilde
ENCODING 126
SWIDTH 800 0
DWIDTH 8 0
BBX 7 4 1 2
BITMAP
20
72
9C
08
ENDCHAR

STARTCHAR C000177
ENCODING 127
SWIDTH 800 0
DWIDTH 8 0
BBX 8 13 0 -3
BITMAP
AA
55
AA
55
AA
55
AA
55
AA
55
AA
55
AA
ENDCHAR

STARTCHAR NoBreakSpace
ENCODING 160
SWIDTH 300 0
DWIDTH 3 0
BBX 1 1 0 0
BITMAP
00
ENDCHAR

STARTCHAR Aogonek
ENCODING 161
SWIDTH 900 0
DWIDTH 9 0
BBX 8 11 1 -3
BITMAP
10
10
28
28
44
7C
82
82
02
04
03
ENDCHAR

STARTCHAR breve
ENCODING 162
SWIDTH 600 0
DWIDTH 6 0
BBX 5 2 1 7
BITMAP
88
70
ENDCHAR

STARTCHAR Lstroke
ENCODING 163
SWIDTH 500 0
DWIDTH 5 0
BBX 5 8 0 0
BITMAP
40
40
60
40
C0
40
40
78
ENDCHAR

STARTCHAR currencysign
ENCODING 164
SWIDTH 700 0
DWIDTH 7 0
BBX 6 6 1 1
BITMAP
84
78
48
48
78
84
ENDCHAR

STARTCHAR Lhacek
ENCODING 165
SWIDTH 500 0
DWIDTH 5 0
BBX 4 9 1 0
BITMAP
10
A0
80
80
80
80
80
80
F0
ENDCHAR

STARTCHAR Sacute
ENCODING 166
SWIDTH 600 0
DWIDTH 6 0
BBX 5 10 1 0
BITMAP
10
20
00
70
88
80
70
08
88
70
ENDCHAR

STARTCHAR paragraphsign
ENCODING 167
SWIDTH 500 0
DWIDTH 5 0
BBX 4 10 1 -2
BITMAP
60
90
C0
60
B0
D0
60
30
90
60
ENDCHAR

STARTCHAR diaeresis
ENCODING 168
SWIDTH 500 0
DWIDTH 5 0
BBX 3 2 1 7
BITMAP
A0
A0
ENDCHAR

STARTCHAR Scaron
ENCODING 169
SWIDTH 600 0
DWIDTH 6 0
BBX 5 10 1 0
BITMAP
50
20
00
70
88
80
70
08
88
70
ENDCHAR

STARTCHAR Scedilla
ENCODING 170
SWIDTH 600 0
DWIDTH 6 0
BBX 5 11 1 -3
BITMAP
70
88
80
60
30
08
88
70
20
10
60
ENDCHAR

STARTCHAR Tcaron
ENCODING 171
SWIDTH 600 0
DWIDTH 6 0
BBX 5 10 1 0
BITMAP
50
20
00
F8
20
20
20
20
20
20
ENDCHAR

STARTCHAR Zacute
ENCODING 172
SWIDTH 600 0
DWIDTH 6 0
BBX 5 10 1 0
BITMAP
10
20
00
F8
08
10
20
40
80
F8
ENDCHAR

STARTCHAR softhyphen
ENCODING 173
SWIDTH 800 0
DWIDTH 8 0
BBX 3 1 3 3
BITMAP
E0
ENDCHAR

STARTCHAR Zcaron
ENCODING 174
SWIDTH 600 0
DWIDTH 6 0
BBX 5 10 1 0
BITMAP
50
20
00
F8
08
10
20
40
80
F8
ENDCHAR

STARTCHAR Zdotabove
ENCODING 175
SWIDTH 600 0
DWIDTH 6 0
BBX 5 9 1 0
BITMAP
20
00
F8
08
10
20
40
80
F8
ENDCHAR

STARTCHAR degreesign
ENCODING 176
SWIDTH 400 0
DWIDTH 4 0
BBX 3 3 1 4
BITMAP
40
A0
40
ENDCHAR

STARTCHAR aogonek
ENCODING 177
SWIDTH 700 0
DWIDTH 7 0
BBX 6 9 1 -3
BITMAP
70
08
78
88
98
68
08
10
0C
ENDCHAR

STARTCHAR ogonek
ENCODING 178
SWIDTH 400 0
DWIDTH 4 0
BBX 3 4 1 -3
BITMAP
40
40
80
60
ENDCHAR

STARTCHAR lstroke
ENCODING 179
SWIDTH 400 0
DWIDTH 4 0
BBX 3 8 1 0
BITMAP
40
40
60
C0
40
40
40
40
ENDCHAR

STARTCHAR acute
ENCODING 180
SWIDTH 500 0
DWIDTH 5 0
BBX 2 2 2 7
BITMAP
40
80
ENDCHAR

STARTCHAR lhacek
ENCODING 181
SWIDTH 500 0
DWIDTH 5 0
BBX 4 8 1 0
BITMAP
90
A0
80
80
80
80
80
80
ENDCHAR

STARTCHAR sacute
ENCODING 182
SWIDTH 500 0
DWIDTH 5 0
BBX 4 9 1 0
BITMAP
30
60
00
70
80
60
10
10
E0
ENDCHAR

STARTCHAR caron
ENCODING 183
SWIDTH 600 0
DWIDTH 6 0
BBX 5 3 1 6
BITMAP
88
70
20
ENDCHAR

STARTCHAR cedilla
ENCODING 184
SWIDTH 700 0
DWIDTH 7 0
BBX 3 3 2 -3
BITMAP
40
20
C0
ENDCHAR

STARTCHAR scaron
ENCODING 185
SWIDTH 500 0
DWIDTH 5 0
BBX 4 9 1 0
BITMAP
50
20
00
70
80
60
10
10
E0
ENDCHAR

STARTCHAR scedilla
ENCODING 186
SWIDTH 500 0
DWIDTH 5 0
BBX 4 9 1 -3
BITMAP
70
80
60
10
10
E0
40
20
C0
ENDCHAR

STARTCHAR thacek
ENCODING 187
SWIDTH 600 0
DWIDTH 6 0
BBX 5 9 1 0
BITMAP
08
50
40
E0
40
40
40
40
20
ENDCHAR

STARTCHAR zacute
ENCODING 188
SWIDTH 500 0
DWIDTH 5 0
BBX 4 9 1 0
BITMAP
30
60
00
F0
10
20
40
80
F0
ENDCHAR

STARTCHAR doubleaccute
ENCODING 189
SWIDTH 500 0
DWIDTH 5 0
BBX 4 2 1 7
BITMAP
50
A0
ENDCHAR

STARTCHAR zcaron
ENCODING 190
SWIDTH 500 0
DWIDTH 5 0
BBX 4 9 1 0
BITMAP
A0
40
00
F0
10
20
40
80
F0
ENDCHAR

STARTCHAR zdotabove
ENCODING 191
SWIDTH 500 0
DWIDTH 5 0
BBX 4 9 1 0
BITMAP
40
40
00
F0
10
20
40
80
F0
ENDCHAR

STARTCHAR Racute
ENCODING 192
SWIDTH 600 0
DWIDTH 6 0
BBX 5 10 1 0
BITMAP
10
20
00
F0
88
88
F0
88
88
88
ENDCHAR

STARTCHAR Aacute
ENCODING 193
SWIDTH 700 0
DWIDTH 7 0
BBX 7 10 0 0
BITMAP
08
10
00
10
10
28
28
7C
44
82
ENDCHAR

STARTCHAR Acircumflex
ENCODING 194
SWIDTH 700 0
DWIDTH 7 0
BBX 7 10 0 0
BITMAP
10
28
00
10
10
28
28
7C
44
82
ENDCHAR

STARTCHAR Abreve
ENCODING 195
SWIDTH 800 0
DWIDTH 8 0
BBX 7 10 1 0
BITMAP
44
38
00
10
10
28
28
7C
44
82
ENDCHAR

STARTCHAR Adiaresis
ENCODING 196
SWIDTH 700 0
DWIDTH 7 0
BBX 7 9 0 0
BITMAP
28
00
10
10
28
28
7C
44
82
ENDCHAR

STARTCHAR Lacute
ENCODING 197
SWIDTH 500 0
DWIDTH 5 0
BBX 4 10 1 0
BITMAP
20
40
00
80
80
80
80
80
80
F0
ENDCHAR

STARTCHAR Cacute
ENCODING 198
SWIDTH 700 0
DWIDTH 7 0
BBX 6 10 1 0
BITMAP
10
20
00
78
84
80
80
80
84
78
ENDCHAR

STARTCHAR Ccedilla
ENCODING 199
SWIDTH 700 0
DWIDTH 7 0
BBX 6 11 1 -3
BITMAP
38
44
80
80
80
80
44
38
10
08
70
ENDCHAR

STARTCHAR Ccaron
ENCODING 200
SWIDTH 700 0
DWIDTH 7 0
BBX 6 10 1 0
BITMAP
50
20
00
78
84
80
80
80
84
78
ENDCHAR

STARTCHAR Eacute
ENCODING 201
SWIDTH 600 0
DWIDTH 6 0
BBX 5 10 1 0
BITMAP
10
20
00
F8
80
80
F8
80
80
F8
ENDCHAR

STARTCHAR Eogonek
ENCODING 202
SWIDTH 600 0
DWIDTH 6 0
BBX 5 11 1 -3
BITMAP
F8
80
80
F8
80
80
80
F8
20
40
30
ENDCHAR

STARTCHAR Ediaeresis
ENCODING 203
SWIDTH 600 0
DWIDTH 6 0
BBX 5 10 1 0
BITMAP
50
50
00
F8
80
80
F8
80
80
F8
ENDCHAR

STARTCHAR Ecaron
ENCODING 204
SWIDTH 600 0
DWIDTH 6 0
BBX 5 10 1 0
BITMAP
50
20
00
F8
80
80
F8
80
80
F8
ENDCHAR

STARTCHAR Iacute
ENCODING 205
SWIDTH 300 0
DWIDTH 3 0
BBX 2 10 1 0
BITMAP
40
80
00
80
80
80
80
80
80
80
ENDCHAR

STARTCHAR Icircumflex
ENCODING 206
SWIDTH 300 0
DWIDTH 3 0
BBX 3 10 0 0
BITMAP
40
A0
00
40
40
40
40
40
40
40
ENDCHAR

STARTCHAR Dcaron
ENCODING 207
SWIDTH 700 0
DWIDTH 7 0
BBX 6 10 1 0
BITMAP
50
20
00
F8
84
84
84
84
84
F8
ENDCHAR

STARTCHAR Dstroke
ENCODING 208
SWIDTH 700 0
DWIDTH 7 0
BBX 7 8 0 0
BITMAP
78
44
42
F2
42
42
44
78
ENDCHAR

STARTCHAR Nacute
ENCODING 209
SWIDTH 700 0
DWIDTH 7 0
BBX 6 10 1 0
BITMAP
10
20
00
84
C4
A4
94
94
8C
84
ENDCHAR

STARTCHAR Ncaron
ENCODING 210
SWIDTH 700 0
DWIDTH 7 0
BBX 6 10 1 0
BITMAP
50
20
00
84
C4
A4
94
94
8C
84
ENDCHAR

STARTCHAR Oacute
ENCODING 211
SWIDTH 700 0
DWIDTH 7 0
BBX 6 10 1 0
BITMAP
10
20
00
78
84
84
84
84
84
78
ENDCHAR

STARTCHAR Ocircumflex
ENCODING 212
SWIDTH 700 0
DWIDTH 7 0
BBX 6 10 1 0
BITMAP
30
48
00
78
84
84
84
84
84
78
ENDCHAR

STARTCHAR Odoubleacute
ENCODING 213
SWIDTH 700 0
DWIDTH 7 0
BBX 6 10 1 0
BITMAP
28
50
00
78
84
84
84
84
84
78
ENDCHAR

STARTCHAR Odiaeresis
ENCODING 214
SWIDTH 700 0
DWIDTH 7 0
BBX 6 10 1 0
BITMAP
48
48
00
78
84
84
84
84
84
78
ENDCHAR

STARTCHAR multiplication
ENCODING 215
SWIDTH 800 0
DWIDTH 8 0
BBX 5 5 2 1
BITMAP
88
50
20
50
88
ENDCHAR

STARTCHAR Rcaron
ENCODING 216
SWIDTH 600 0
DWIDTH 6 0
BBX 5 10 1 0
BITMAP
50
20
00
F0
88
88
F0
88
88
88
ENDCHAR

STARTCHAR Uringabove
ENCODING 217
SWIDTH 700 0
DWIDTH 7 0
BBX 6 10 1 0
BITMAP
30
48
30
84
84
84
84
84
84
78
ENDCHAR

STARTCHAR Uacute
ENCODING 218
SWIDTH 700 0
DWIDTH 7 0
BBX 6 10 1 0
BITMAP
10
20
00
84
84
84
84
84
84
78
ENDCHAR

STARTCHAR Udoubleacute
ENCODING 219
SWIDTH 700 0
DWIDTH 7 0
BBX 6 10 1 0
BITMAP
28
50
00
84
84
84
84
84
84
78
ENDCHAR

STARTCHAR Udiaeresis
ENCODING 220
SWIDTH 700 0
DWIDTH 7 0
BBX 6 9 1 0
BITMAP
48
00
84
84
84
84
84
84
78
ENDCHAR

STARTCHAR Yacute
ENCODING 221
SWIDTH 700 0
DWIDTH 7 0
BBX 7 10 0 0
BITMAP
08
10
00
82
44
28
10
10
10
10
ENDCHAR

STARTCHAR Tcedilla
ENCODING 222
SWIDTH 600 0
DWIDTH 6 0
BBX 5 11 1 -3
BITMAP
F8
20
20
20
20
20
20
20
00
40
80
ENDCHAR

STARTCHAR germansharps
ENCODING 223
SWIDTH 600 0
DWIDTH 6 0
BBX 5 9 1 -2
BITMAP
60
90
90
A0
90
88
B0
80
80
ENDCHAR

STARTCHAR racute
ENCODING 224
SWIDTH 500 0
DWIDTH 5 0
BBX 4 9 1 0
BITMAP
30
60
00
B0
C0
80
80
80
80
ENDCHAR

STARTCHAR aacute
ENCODING 225
SWIDTH 600 0
DWIDTH 6 0
BBX 5 9 1 0
BITMAP
18
30
00
70
08
78
88
98
68
ENDCHAR

STARTCHAR acircumflex
ENCODING 226
SWIDTH 600 0
DWIDTH 6 0
BBX 5 9 1 0
BITMAP
20
50
00
70
08
78
88
98
68
ENDCHAR

STARTCHAR abreve
ENCODING 227
SWIDTH 600 0
DWIDTH 6 0
BBX 5 9 1 0
BITMAP
88
70
00
70
08
78
88
98
68
ENDCHAR

STARTCHAR adiaresis
ENCODING 228
SWIDTH 600 0
DWIDTH 6 0
BBX 5 8 1 0
BITMAP
50
00
70
08
78
88
98
68
ENDCHAR

STARTCHAR lacute
ENCODING 229
SWIDTH 300 0
DWIDTH 3 0
BBX 2 10 1 0
BITMAP
40
80
00
80
80
80
80
80
80
80
ENDCHAR

STARTCHAR cacute
ENCODING 230
SWIDTH 600 0
DWIDTH 6 0
BBX 5 9 1 0
BITMAP
18
30
00
70
88
88
80
88
70
ENDCHAR

STARTCHAR ccedilla
ENCODING 231
SWIDTH 600 0
DWIDTH 6 0
BBX 5 9 1 -3
BITMAP
70
88
80
80
88
70
20
10
60
ENDCHAR

STARTCHAR ccaron
ENCODING 232
SWIDTH 600 0
DWIDTH 6 0
BBX 5 9 1 0
BITMAP
50
20
00
70
88
80
80
88
70
ENDCHAR

STARTCHAR eacute
ENCODING 233
SWIDTH 600 0
DWIDTH 6 0
BBX 5 9 1 0
BITMAP
18
30
00
70
88
F8
80
80
78
ENDCHAR

STARTCHAR eogonek
ENCODING 234
SWIDTH 600 0
DWIDTH 6 0
BBX 5 9 1 -3
BITMAP
70
88
F8
80
80
78
20
40
30
ENDCHAR

STARTCHAR ediaeresis
ENCODING 235
SWIDTH 600 0
DWIDTH 6 0
BBX 5 9 1 0
BITMAP
50
50
00
70
88
F8
80
80
78
ENDCHAR

STARTCHAR ecaron
ENCODING 236
SWIDTH 600 0
DWIDTH 6 0
BBX 5 9 1 0
BITMAP
50
20
00
70
88
F8
80
80
78
ENDCHAR

STARTCHAR iacute
ENCODING 237
SWIDTH 300 0
DWIDTH 3 0
BBX 2 9 1 0
BITMAP
40
80
00
80
80
80
80
80
80
ENDCHAR

STARTCHAR icircumflex
ENCODING 238
SWIDTH 300 0
DWIDTH 3 0
BBX 3 9 0 0
BITMAP
40
A0
00
40
40
40
40
40
40
ENDCHAR

STARTCHAR dhacek
ENCODING 239
SWIDTH 800 0
DWIDTH 8 0
BBX 7 8 1 0
BITMAP
0A
0A
68
98
88
88
98
68
ENDCHAR

STARTCHAR dstroke
ENCODING 240
SWIDTH 700 0
DWIDTH 7 0
BBX 6 9 1 0
BITMAP
08
1C
08
68
98
88
88
98
68
ENDCHAR

STARTCHAR nacute
ENCODING 241
SWIDTH 600 0
DWIDTH 6 0
BBX 5 9 1 0
BITMAP
18
30
00
B0
C8
88
88
88
88
ENDCHAR

STARTCHAR ncaron
ENCODING 242
SWIDTH 600 0
DWIDTH 6 0
BBX 5 9 1 0
BITMAP
50
20
00
B0
C8
88
88
88
88
ENDCHAR

STARTCHAR oacute
ENCODING 243
SWIDTH 600 0
DWIDTH 6 0
BBX 5 9 1 0
BITMAP
18
30
00
70
88
88
88
88
70
ENDCHAR

STARTCHAR ocircumflex
ENCODING 244
SWIDTH 600 0
DWIDTH 6 0
BBX 5 9 1 0
BITMAP
20
50
00
70
88
88
88
88
70
ENDCHAR

STARTCHAR odoubleacute
ENCODING 245
SWIDTH 600 0
DWIDTH 6 0
BBX 5 9 1 0
BITMAP
28
50
00
70
88
88
88
88
70
ENDCHAR

STARTCHAR odiaeresis
ENCODING 246
SWIDTH 600 0
DWIDTH 6 0
BBX 5 9 1 0
BITMAP
50
50
00
70
88
88
88
88
70
ENDCHAR

STARTCHAR division
ENCODING 247
SWIDTH 800 0
DWIDTH 8 0
BBX 5 7 2 0
BITMAP
20
20
00
F8
00
20
20
ENDCHAR

STARTCHAR rcaron
ENCODING 248
SWIDTH 500 0
DWIDTH 5 0
BBX 4 9 1 0
BITMAP
A0
40
00
B0
C0
80
80
80
80
ENDCHAR

STARTCHAR urignabove
ENCODING 249
SWIDTH 600 0
DWIDTH 6 0
BBX 5 9 1 0
BITMAP
20
50
20
88
88
88
88
98
68
ENDCHAR

STARTCHAR uacute
ENCODING 250
SWIDTH 600 0
DWIDTH 6 0
BBX 5 9 1 0
BITMAP
18
30
00
88
88
88
88
98
68
ENDCHAR

STARTCHAR udoubleacute
ENCODING 251
SWIDTH 600 0
DWIDTH 6 0
BBX 5 9 1 0
BITMAP
28
50
00
88
88
88
88
98
68
ENDCHAR

STARTCHAR udiaeresis
ENCODING 252
SWIDTH 600 0
DWIDTH 6 0
BBX 5 9 1 0
BITMAP
50
50
00
88
88
88
88
98
68
ENDCHAR

STARTCHAR yacute
ENCODING 253
SWIDTH 600 0
DWIDTH 6 0
BBX 5 11 1 -2
BITMAP
18
30
00
88
88
88
50
50
20
20
C0
ENDCHAR

STARTCHAR tcedilla
ENCODING 254
SWIDTH 400 0
DWIDTH 4 0
BBX 3 11 1 -3
BITMAP
40
40
E0
40
40
40
40
20
00
40
80
ENDCHAR

STARTCHAR dotabove
ENCODING 255
SWIDTH 300 0
DWIDTH 3 0
BBX 1 2 1 7
BITMAP
80
80
ENDCHAR
ENDFONT
